<svg width="17" height="22" viewBox="0 0 17 22"  xmlns="http://www.w3.org/2000/svg">
<path opacity="0.47" d="M16.0504 10.1066L12.1875 7.5596L1.59958 1.04521C2.39781 1.94134 3.02128 2.97892 3.43777 4.10437C3.71626 4.83395 3.90992 5.59314 4.01493 6.36697L11.9509 11.3416C12.0927 11.4396 12.1897 11.5898 12.2207 11.7593C12.2516 11.9288 12.214 12.1037 12.116 12.2454L12.0863 12.2834L12.0566 12.3175L12.0224 12.3516H12.0059L11.9509 12.394L4.28232 17.0633C4.23234 17.0974 4.17609 17.1214 4.11681 17.1337C4.05754 17.146 3.99641 17.1464 3.93697 17.1349C3.87753 17.1235 3.82094 17.1003 3.77049 17.0669C3.72003 17.0335 3.6767 16.9904 3.643 16.9401C3.59098 16.8636 3.56283 16.7734 3.56212 16.681V6.0314C3.45482 5.37422 3.28268 4.72928 3.04824 4.10602C2.49536 2.5634 1.53205 1.20082 0.262057 0.165033L0.0117188 0V20.0427C0.0125343 20.3968 0.109024 20.7441 0.290987 21.0478C0.472949 21.3516 0.733623 21.6005 1.04545 21.7684C1.35727 21.9362 1.70866 22.0167 2.06246 22.0013C2.41626 21.9859 2.75933 21.8752 3.05539 21.6809L16.0504 13.5828C16.3385 13.3934 16.575 13.1354 16.7387 12.8321C16.9023 12.5287 16.988 12.1894 16.988 11.8447C16.988 11.5 16.9023 11.1607 16.7387 10.8573C16.575 10.5539 16.3385 10.296 16.0504 10.1066Z" />
<path d="M16.0504 10.1066L12.1875 7.5596C12.4954 7.80955 12.7508 8.11794 12.9389 8.46702C13.1271 8.81609 13.2443 9.19894 13.2837 9.59351C13.3232 9.98807 13.2842 10.3866 13.169 10.766C13.0537 11.1454 12.8645 11.4983 12.6123 11.8042C12.4631 11.9893 12.292 12.1555 12.1028 12.2993L12.0731 12.3335L12.039 12.3676L11.9839 12.4099L6.46494 15.6611L4.34174 17.0974C4.2911 17.1369 4.23272 17.1653 4.17039 17.1808C4.10807 17.1962 4.04318 17.1985 3.97995 17.1873C3.91671 17.1761 3.85654 17.1517 3.80332 17.1157C3.75011 17.0798 3.70505 17.0331 3.67106 16.9786C3.61904 16.9021 3.59089 16.8119 3.59018 16.7195V6.0512C3.47546 5.3864 3.29332 4.73502 3.04659 4.10712C2.49434 2.5643 1.5316 1.20134 0.262057 0.165033L0.0117188 0V20.0427C0.0125343 20.3968 0.109024 20.7441 0.290987 21.0478C0.472949 21.3516 0.733623 21.6005 1.04545 21.7684C1.35727 21.9362 1.70866 22.0167 2.06246 22.0013C2.41626 21.9859 2.75933 21.8752 3.05539 21.6809L16.0504 13.5828C16.3385 13.3934 16.575 13.1354 16.7387 12.8321C16.9023 12.5287 16.988 12.1894 16.988 11.8447C16.988 11.5 16.9023 11.1607 16.7387 10.8573C16.575 10.5539 16.3385 10.296 16.0504 10.1066Z" />
</svg>
